<svg width="15" height="16" viewBox="0 0 15 16" fill="none" xmlns="http://www.w3.org/2000/svg">
<path d="M2.25921 16C1.8864 16 1.56952 15.8704 1.30855 15.6111C1.04759 15.3519 0.917105 15.037 0.917105 14.6667V2H0V0.666667H4.20526V0H10.1105V0.666667H14.3158V2H13.3987V14.6667C13.3987 15.0222 13.2645 15.3333 12.9961 15.6C12.7276 15.8667 12.4145 16 12.0566 16H2.25921ZM12.0566 2H2.25921V14.6667H12.0566V2ZM4.63026 12.7556H5.97237V3.88889H4.63026V12.7556ZM8.34342 12.7556H9.68553V3.88889H8.34342V12.7556ZM2.25921 2V14.6667V2Z" fill="#FF0000"/>
</svg>
